<svg xmlns="http://www.w3.org/2000/svg" width="17.459" height="17.459" viewBox="0 0 17.459 17.459">
  <g id="Vector_Smart_Object" data-name="Vector Smart Object" opacity="0.5">
    <g id="Group_2" data-name="Group 2">
      <g id="Group_1" data-name="Group 1">
        <path id="Path_1" data-name="Path 1" d="M15.413,1.364h-.818V0H13.231V1.364h-9V0H2.865V1.364H2.046A2.049,2.049,0,0,0,0,3.41v12a2.049,2.049,0,0,0,2.046,2.046H15.413a2.048,2.048,0,0,0,2.046-2.046v-12A2.049,2.049,0,0,0,15.413,1.364ZM16.1,15.413a.682.682,0,0,1-.682.682H2.046a.682.682,0,0,1-.682-.682v-9H16.1Zm0-10.366H1.364V3.41a.682.682,0,0,1,.682-.682h.818V4.092H4.229V2.728h9V4.092h1.364V2.728h.818a.682.682,0,0,1,.682.682Z"/>
      </g>
    </g>
    <g id="Group_4" data-name="Group 4" transform="translate(2.592 7.843)">
      <g id="Group_3" data-name="Group 3">
        <rect id="Rectangle_1" data-name="Rectangle 1" width="1.364" height="1.364"/>
      </g>
    </g>
    <g id="Group_6" data-name="Group 6" transform="translate(5.32 7.843)">
      <g id="Group_5" data-name="Group 5">
        <rect id="Rectangle_2" data-name="Rectangle 2" width="1.364" height="1.364"/>
      </g>
    </g>
    <g id="Group_8" data-name="Group 8" transform="translate(8.048 7.843)">
      <g id="Group_7" data-name="Group 7">
        <rect id="Rectangle_3" data-name="Rectangle 3" width="1.364" height="1.364"/>
      </g>
    </g>
    <g id="Group_10" data-name="Group 10" transform="translate(10.775 7.843)">
      <g id="Group_9" data-name="Group 9">
        <rect id="Rectangle_4" data-name="Rectangle 4" width="1.364" height="1.364"/>
      </g>
    </g>
    <g id="Group_12" data-name="Group 12" transform="translate(13.503 7.843)">
      <g id="Group_11" data-name="Group 11">
        <rect id="Rectangle_5" data-name="Rectangle 5" width="1.364" height="1.364"/>
      </g>
    </g>
    <g id="Group_14" data-name="Group 14" transform="translate(2.592 10.571)">
      <g id="Group_13" data-name="Group 13">
        <rect id="Rectangle_6" data-name="Rectangle 6" width="1.364" height="1.364"/>
      </g>
    </g>
    <g id="Group_16" data-name="Group 16" transform="translate(5.32 10.571)">
      <g id="Group_15" data-name="Group 15">
        <rect id="Rectangle_7" data-name="Rectangle 7" width="1.364" height="1.364"/>
      </g>
    </g>
    <g id="Group_18" data-name="Group 18" transform="translate(8.048 10.571)">
      <g id="Group_17" data-name="Group 17">
        <rect id="Rectangle_8" data-name="Rectangle 8" width="1.364" height="1.364"/>
      </g>
    </g>
    <g id="Group_20" data-name="Group 20" transform="translate(10.775 10.571)">
      <g id="Group_19" data-name="Group 19">
        <rect id="Rectangle_9" data-name="Rectangle 9" width="1.364" height="1.364"/>
      </g>
    </g>
    <g id="Group_22" data-name="Group 22" transform="translate(2.592 13.299)">
      <g id="Group_21" data-name="Group 21">
        <rect id="Rectangle_10" data-name="Rectangle 10" width="1.364" height="1.364"/>
      </g>
    </g>
    <g id="Group_24" data-name="Group 24" transform="translate(5.32 13.299)">
      <g id="Group_23" data-name="Group 23">
        <rect id="Rectangle_11" data-name="Rectangle 11" width="1.364" height="1.364"/>
      </g>
    </g>
    <g id="Group_26" data-name="Group 26" transform="translate(8.048 13.299)">
      <g id="Group_25" data-name="Group 25">
        <rect id="Rectangle_12" data-name="Rectangle 12" width="1.364" height="1.364"/>
      </g>
    </g>
    <g id="Group_28" data-name="Group 28" transform="translate(10.775 13.299)">
      <g id="Group_27" data-name="Group 27">
        <rect id="Rectangle_13" data-name="Rectangle 13" width="1.364" height="1.364"/>
      </g>
    </g>
    <g id="Group_30" data-name="Group 30" transform="translate(13.503 10.571)">
      <g id="Group_29" data-name="Group 29">
        <rect id="Rectangle_14" data-name="Rectangle 14" width="1.364" height="1.364"/>
      </g>
    </g>
  </g>
</svg>
