<svg id="Group_37" data-name="Group 37" xmlns="http://www.w3.org/2000/svg" xmlns:xlink="http://www.w3.org/1999/xlink" width="97.809" height="97.832" viewBox="0 0 97.809 97.832">
  <defs>
    <clipPath id="clip-path">
      <rect id="Rectangle_25" data-name="Rectangle 25" width="97.809" height="97.832" fill="#ff0030"/>
    </clipPath>
  </defs>
  <g id="Group_36" data-name="Group 36" clip-path="url(#clip-path)">
    <path id="Path_32" data-name="Path 32" d="M97.809,49.08A48.9,48.9,0,0,1,48.491,97.832C21.606,97.749-.074,75.683,0,48.476.074,21.806,22.133-.054,48.916,0A48.961,48.961,0,0,1,97.809,49.08M4.256,48.807A44.648,44.648,0,1,0,48.529,4.257C24.291,4.232,4.251,24.4,4.256,48.807" transform="translate(0 0)" fill="#ff0030"/>
    <path id="Path_33" data-name="Path 33" d="M112.137,109.133c6.339,6.341,12.574,12.578,18.809,18.816a11.089,11.089,0,0,1,.777.807,2.114,2.114,0,0,1-2.972,3,9.682,9.682,0,0,1-.726-.7q-9-9-18-18c-.285-.285-.584-.556-.925-.881-.337.318-.637.587-.921.871q-9,9-18,18a8.478,8.478,0,0,1-.815.768,2.11,2.11,0,0,1-2.977-2.954,8.449,8.449,0,0,1,.769-.813q9-9,18-18c.285-.285.557-.584.882-.926-.318-.337-.585-.637-.869-.922q-9.036-9.042-18.074-18.082a6.87,6.87,0,0,1-.762-.819,2.111,2.111,0,0,1,2.93-2.962,7.4,7.4,0,0,1,.9.834q9,9,18,18c.286.285.584.558.927.886.335-.314.635-.581.919-.865q9.04-9.038,18.078-18.077a6.253,6.253,0,0,1,.915-.82,2.1,2.1,0,0,1,2.665.307,2.03,2.03,0,0,1,.256,2.58,5.376,5.376,0,0,1-.886,1q-8.995,9-17.995,18c-.285.285-.558.584-.908.952" transform="translate(-60.193 -60.196)" fill="#ff0030"/>
  </g>
</svg>
