<svg id="logo-claro-blanco" xmlns="http://www.w3.org/2000/svg" width="193.5" height="69.9" viewBox="0 0 193.5 69.9">
  <path id="Path_25" data-name="Path 25" d="M144.4,31.2A18.073,18.073,0,0,0,131,36.9a18.64,18.64,0,0,0-5.6,13.7A18.262,18.262,0,0,0,131,64.2a18.073,18.073,0,0,0,13.4,5.7,19.29,19.29,0,0,0,19.2-19.3A19.037,19.037,0,0,0,158,36.9,18.512,18.512,0,0,0,144.4,31.2Zm7.2,26.5a9.443,9.443,0,0,1-7.1,3,9.759,9.759,0,0,1-7.1-3,10.224,10.224,0,0,1-3-7.2,9.881,9.881,0,0,1,3-7.2,9.011,9.011,0,0,1,7.1-2.9,9.36,9.36,0,0,1,7.2,2.9,10.207,10.207,0,0,1,2.9,7.2A10.667,10.667,0,0,1,151.6,57.7Z" fill="#da291c"/>
  <path id="Path_26" data-name="Path 26" d="M23.6,30.8a14.343,14.343,0,0,1,7.9,2.4,15.455,15.455,0,0,1,5.2,6.1h9.6A23.062,23.062,0,0,0,38,26.7a22.349,22.349,0,0,0-14.4-5A22.138,22.138,0,0,0,7,28.7,22.953,22.953,0,0,0,0,45.6a23.336,23.336,0,0,0,7,17,22.641,22.641,0,0,0,16.7,6.9,22.824,22.824,0,0,0,14.4-4.9A24.386,24.386,0,0,0,46.4,52H36.8a16.177,16.177,0,0,1-5.2,6.1,14.831,14.831,0,0,1-7.9,2.3,14.04,14.04,0,0,1-10.3-4.3A13.584,13.584,0,0,1,9.2,45.7a13.584,13.584,0,0,1,4.2-10.4A13.285,13.285,0,0,1,23.6,30.8Z" fill="#da291c"/>
  <path id="Path_27" data-name="Path 27" d="M92.6,33.5a21.1,21.1,0,0,0-10.7-2.4c-6.2-.1-10.5,1.6-13,4.9a13.867,13.867,0,0,0-2.6,8h9.2a6.359,6.359,0,0,1,1.3-3.4,5.7,5.7,0,0,1,4.9-1.8,8.393,8.393,0,0,1,4.5.9c1.1.5,1.5,1.6,1.6,3.1a3.023,3.023,0,0,1-2.1,2.8l-7.1,1.1a19.925,19.925,0,0,0-7.9,2.4c-3.4,2-5.1,5.3-5,10A9.978,9.978,0,0,0,68.8,67a11.9,11.9,0,0,0,7.5,2.6c5-.1,9-1.3,11.8-3.8v3.8h9.2v-27C97.2,38.2,95.6,35.1,92.6,33.5ZM87.5,54.6c0,3.2-.9,5.4-2.6,6.6a9.987,9.987,0,0,1-5.7,1.9A5.244,5.244,0,0,1,75.9,62a4.411,4.411,0,0,1-1.3-3.6,4.617,4.617,0,0,1,2.2-4.2A11.758,11.758,0,0,1,81.1,53l4.6-1.2,1.8-1Z" fill="#da291c"/>
  <rect id="Rectangle_18" data-name="Rectangle 18" width="9.2" height="47.9" transform="translate(51 21.7)" fill="#da291c"/>
  <path id="Path_28" data-name="Path 28" d="M122.1,31.5l-3.5,1a14.643,14.643,0,0,0-6.5,5.2V33l-8.7-.1V69.7h9.1V52.1c0-3,.4-5.1,1.2-6.5a8.248,8.248,0,0,1,3.2-3.5,8.713,8.713,0,0,1,5-1.6l2.8.2-.1-9.4Z" fill="#da291c"/>
  <path id="Path_29" data-name="Path 29" d="M181.5,4.6,159.4,26.8l5.8,5.8,22.1-22.2Z" fill="#da291c"/>
  <rect id="Rectangle_19" data-name="Rectangle 19" width="8.2" height="23.8" transform="translate(141.4)" fill="#da291c"/>
  <rect id="Rectangle_20" data-name="Rectangle 20" width="24.3" height="8.2" transform="translate(169.2 41.8)" fill="#da291c"/>
</svg>
