<svg id="Group_34" data-name="Group 34" xmlns="http://www.w3.org/2000/svg" xmlns:xlink="http://www.w3.org/1999/xlink" width="97.847" height="97.832" viewBox="0 0 97.847 97.832">
  <defs>
    <clipPath id="clip-path">
      <rect id="Rectangle_24" data-name="Rectangle 24" width="97.847" height="97.832" fill="#1cc810"/>
    </clipPath>
  </defs>
  <g id="Group_33" data-name="Group 33" clip-path="url(#clip-path)">
    <path id="Path_30" data-name="Path 30" d="M48.755,0A48.916,48.916,0,1,1,0,49.329,48.972,48.972,0,0,1,48.755,0m.223,4.262A44.655,44.655,0,1,0,93.587,48.94,44.658,44.658,0,0,0,48.978,4.262" transform="translate(0 0)" fill="#1cc810"/>
    <path id="Path_31" data-name="Path 31" d="M91.574,133.911c.581-.705.84-1.078,1.156-1.393q14.62-14.632,29.25-29.254c1.457-1.456,2.647-1.651,3.662-.607.957.986.745,2.211-.627,3.583L93.777,137.47c-1.671,1.67-2.567,1.675-4.219.024q-8.722-8.718-17.441-17.44a7.359,7.359,0,0,1-.76-.821,2.1,2.1,0,0,1,.165-2.676,2.027,2.027,0,0,1,2.742-.274,8.186,8.186,0,0,1,.99.907q7.733,7.725,15.454,15.462a9.877,9.877,0,0,1,.867,1.261" transform="translate(-49.691 -71.433)" fill="#1cc810"/>
  </g>
</svg>
